{"title":"Capture.the.Flag.2015.BRRip.480p.x264.AAC-VYTO [P2PDL]","uid":13769988,"size":375462775,"categoryP":"video","categoryS":"movies","magnet":"?xt=urn:btih:819d1c1131492591a8bd37a978368ec246ff6476&amp;dn=Capture.the.Flag.2015.BRRip.480p.x264.AAC-VYTO+%5BP2PDL%5D&amp;tr=udp%3A%2F%2Ftracker.leechers-paradise.org%3A6969&amp;tr=udp%3A%2F%2Fzer0day.ch%3A1337&amp;tr=udp%3A%2F%2Fopen.demonii.com%3A1337&amp;tr=udp%3A%2F%2Ftracker.coppersurfer.tk%3A6969&amp;tr=udp%3A%2F%2Fexodus.desync.com%3A6969","seeders":0,"leechers":1,"uploader":"VYTOP2PDL","files":7,"time":1457289079,"description":"____    ____ ____    ____ .___________.  ______   \r\n     /   /      /   / |           | /  __    \r\n    /   /      /   /  `---|  |----`|  |  |  | \r\n        /     _    _/       |  |     |  |  |  | \r\n       /        |  |         |  |     |  `--'  | \r\n    __/         |__|         |__|      ______/  \r\n                                                  \r\nPresenting Small Encodes with quality for years!\r\n                                                                                                   \r\n                                                                                                   \r\n\r\n\r\nCapture.the.Flag.2015.BRRip.480p.x264.AAC-VYTO\r\n\r\n\r\nGenre: Animation, Adventure, Comedy  \nhttp://www.imdb.com/title/tt3896100/\r\n\r\n\r\nFormat                                   : MP4\r\nFile size                                : 351 MiB\r\nDuration                                 : 1h 35mn\r\nOverall bit rate                         : 515 Kbps\r\n\r\nVideo\r\nFormat                                   : AVC\r\nBit rate                                 : 484 Kbps\r\nWidth                                    : 720 pixels\r\nHeight                                   : 304 pixels\r\nDisplay aspect ratio                     : 2.35:1\r\nFrame rate mode                          : Constant\r\nFrame rate                               : 24.000 fps\r\nBit depth                                : 8 bits\r\nStream size                              : 327 MiB (93%)\r\nWriting library                          : x264 \r\n\r\nAudio\r\nFormat                                   : AAC\r\nBit rate mode                            : Variable\r\nBit rate                                 : 31.6 Kbps\r\nChannel(s)                               : 2 channels \r\nChannel positions                        : Front: L R \r\nSampling rate                            : 48.0 KHz\r\nStream size                              : 21.6 MiB (6%)\r\nLanguage                                 : English\r\n\r\nSubtitle                                 : Yes (English)\r\n\r\nScreen Shots: (Click  to view)\r\n \nhttp://ititli.com/X6x \nhttp://ititli.com/X67 \nhttp://ititli.com/X6C \nhttp://ititli.com/X6F \nhttp://ititli.com/X6J \nhttp://ititli.com/X65 \nhttp://ititli.com/X6B \nhttp://ititli.com/X6N \nhttp://ititli.com/X6P\r\n\r\n----------------------------------------------------------------------------------------------------\r\n\r\n\r\nEncoder Notes: Looking For Early Access To Anything You Can Provide WEBDL, DVDScr, DVDR, BluRay,\r\nDirect Audio, Music Releases and Seedboxes. If You Got anything to offer please contact us.\r\n\r\nSupport us by donating BC - 1FgwdzPsd1y25Gea8wP1qni35uGCtmkRCD\r\n\r\nFace book Fan Page","torrent":{"xt":"urn:btih:819d1c1131492591a8bd37a978368ec246ff6476","amp;dn":"Capture.the.Flag.2015.BRRip.480p.x264.AAC-VYTO+%5BP2PDL%5D","amp;tr":["udp%3A%2F%2Ftracker.leechers-paradise.org%3A6969","udp%3A%2F%2Fzer0day.ch%3A1337","udp%3A%2F%2Fopen.demonii.com%3A1337","udp%3A%2F%2Ftracker.coppersurfer.tk%3A6969","udp%3A%2F%2Fexodus.desync.com%3A6969"],"infoHash":"819d1c1131492591a8bd37a978368ec246ff6476","infoHashBuffer":{"type":"Buffer","data":[129,157,28,17,49,73,37,145,168,189,55,169,120,54,142,194,70,255,100,118]},"announce":[],"urlList":[]}}